<mxfile host="app.diagrams.net" agent="Mozilla/5.0 (Windows NT 10.0; Win64; x64) AppleWebKit/537.36 (KHTML, like Gecko) Chrome/131.0.0.0 Safari/537.36" version="24.8.9">
  <diagram name="Page-1" id="a4dLpF04CKLS6BtBtGb0">
    <mxGraphModel dx="1392" dy="771" grid="1" gridSize="10" guides="1" tooltips="1" connect="1" arrows="1" fold="1" page="1" pageScale="1" pageWidth="850" pageHeight="1100" math="0" shadow="0">
      <root>
        <mxCell id="0" />
        <mxCell id="1" parent="0" />
        <mxCell id="66jfyr5Fb_T-7oH1abzF-9" value="Presentation Layer" style="shape=umlFrame;whiteSpace=wrap;html=1;pointerEvents=0;width=100;height=30;" vertex="1" parent="1">
          <mxGeometry x="160" y="40" width="560" height="120" as="geometry" />
        </mxCell>
        <mxCell id="66jfyr5Fb_T-7oH1abzF-10" value="Web and Mobile View&lt;div&gt;(Frontend)&lt;/div&gt;" style="text;html=1;align=center;verticalAlign=middle;resizable=0;points=[];autosize=1;strokeColor=none;fillColor=none;fontSize=18;" vertex="1" parent="1">
          <mxGeometry x="340" y="70" width="200" height="60" as="geometry" />
        </mxCell>
        <mxCell id="66jfyr5Fb_T-7oH1abzF-11" value="Application Layer" style="shape=umlFrame;whiteSpace=wrap;html=1;pointerEvents=0;width=110;height=30;" vertex="1" parent="1">
          <mxGeometry x="120" y="240" width="640" height="120" as="geometry" />
        </mxCell>
        <mxCell id="66jfyr5Fb_T-7oH1abzF-12" value="Authentication&lt;div&gt;&lt;span style=&quot;background-color: initial;&quot;&gt;Service&lt;/span&gt;&lt;/div&gt;" style="text;html=1;align=center;verticalAlign=middle;resizable=0;points=[];autosize=1;strokeColor=none;fillColor=none;" vertex="1" parent="1">
          <mxGeometry x="130" y="290" width="100" height="40" as="geometry" />
        </mxCell>
        <mxCell id="66jfyr5Fb_T-7oH1abzF-13" value="Profile&lt;div&gt;Management&lt;/div&gt;" style="text;html=1;align=center;verticalAlign=middle;resizable=0;points=[];autosize=1;strokeColor=none;fillColor=none;fontFamily=Helvetica;fontSize=12;fontColor=default;" vertex="1" parent="1">
          <mxGeometry x="260" y="290" width="90" height="40" as="geometry" />
        </mxCell>
        <mxCell id="66jfyr5Fb_T-7oH1abzF-14" value="Post&lt;div&gt;Management&lt;/div&gt;" style="text;html=1;align=center;verticalAlign=middle;resizable=0;points=[];autosize=1;strokeColor=none;fillColor=none;fontFamily=Helvetica;fontSize=12;fontColor=default;" vertex="1" parent="1">
          <mxGeometry x="370" y="290" width="90" height="40" as="geometry" />
        </mxCell>
        <mxCell id="66jfyr5Fb_T-7oH1abzF-15" value="Messaging&lt;div&gt;Service&lt;/div&gt;" style="text;html=1;align=center;verticalAlign=middle;resizable=0;points=[];autosize=1;strokeColor=none;fillColor=none;fontFamily=Helvetica;fontSize=12;fontColor=default;" vertex="1" parent="1">
          <mxGeometry x="480" y="290" width="80" height="40" as="geometry" />
        </mxCell>
        <mxCell id="66jfyr5Fb_T-7oH1abzF-16" value="Notification&lt;div&gt;Service&lt;/div&gt;" style="text;html=1;align=center;verticalAlign=middle;resizable=0;points=[];autosize=1;strokeColor=none;fillColor=none;fontFamily=Helvetica;fontSize=12;fontColor=default;" vertex="1" parent="1">
          <mxGeometry x="570" y="290" width="80" height="40" as="geometry" />
        </mxCell>
        <mxCell id="66jfyr5Fb_T-7oH1abzF-17" value="Data Layer" style="shape=umlFrame;whiteSpace=wrap;html=1;pointerEvents=0;strokeColor=default;align=center;verticalAlign=middle;fontFamily=Helvetica;fontSize=12;fontColor=default;fillColor=default;width=110;height=30;" vertex="1" parent="1">
          <mxGeometry x="160" y="440" width="560" height="120" as="geometry" />
        </mxCell>
        <mxCell id="66jfyr5Fb_T-7oH1abzF-18" value="Posts&lt;div&gt;DB&lt;/div&gt;" style="text;html=1;align=center;verticalAlign=middle;resizable=0;points=[];autosize=1;strokeColor=none;fillColor=none;fontFamily=Helvetica;fontSize=12;fontColor=default;" vertex="1" parent="1">
          <mxGeometry x="195" y="493" width="50" height="40" as="geometry" />
        </mxCell>
        <mxCell id="66jfyr5Fb_T-7oH1abzF-19" value="Users&lt;div&gt;DB&lt;/div&gt;" style="text;html=1;align=center;verticalAlign=middle;resizable=0;points=[];autosize=1;strokeColor=none;fillColor=none;fontFamily=Helvetica;fontSize=12;fontColor=default;" vertex="1" parent="1">
          <mxGeometry x="290" y="493" width="50" height="40" as="geometry" />
        </mxCell>
        <mxCell id="66jfyr5Fb_T-7oH1abzF-20" value="Messages&lt;div&gt;DB&lt;/div&gt;" style="text;html=1;align=center;verticalAlign=middle;resizable=0;points=[];autosize=1;strokeColor=none;fillColor=none;fontFamily=Helvetica;fontSize=12;fontColor=default;" vertex="1" parent="1">
          <mxGeometry x="380" y="493" width="80" height="40" as="geometry" />
        </mxCell>
        <mxCell id="66jfyr5Fb_T-7oH1abzF-21" value="User Cloud Data&lt;div&gt;DB&lt;/div&gt;" style="text;html=1;align=center;verticalAlign=middle;resizable=0;points=[];autosize=1;strokeColor=none;fillColor=none;fontFamily=Helvetica;fontSize=12;fontColor=default;" vertex="1" parent="1">
          <mxGeometry x="485" y="493" width="110" height="40" as="geometry" />
        </mxCell>
        <mxCell id="66jfyr5Fb_T-7oH1abzF-22" value="Search&lt;div&gt;Functionality&amp;nbsp;&lt;/div&gt;" style="text;html=1;align=center;verticalAlign=middle;resizable=0;points=[];autosize=1;strokeColor=none;fillColor=none;fontFamily=Helvetica;fontSize=12;fontColor=default;" vertex="1" parent="1">
          <mxGeometry x="665" y="290" width="90" height="40" as="geometry" />
        </mxCell>
        <mxCell id="66jfyr5Fb_T-7oH1abzF-23" value="" style="endArrow=classic;startArrow=classic;html=1;rounded=0;fontFamily=Helvetica;fontSize=12;fontColor=default;entryX=0.5;entryY=1;entryDx=0;entryDy=0;entryPerimeter=0;exitX=0.5;exitY=0;exitDx=0;exitDy=0;exitPerimeter=0;" edge="1" parent="1" source="66jfyr5Fb_T-7oH1abzF-11" target="66jfyr5Fb_T-7oH1abzF-9">
          <mxGeometry width="50" height="50" relative="1" as="geometry">
            <mxPoint x="450" y="220" as="sourcePoint" />
            <mxPoint x="430" y="170" as="targetPoint" />
          </mxGeometry>
        </mxCell>
        <mxCell id="66jfyr5Fb_T-7oH1abzF-24" value="" style="endArrow=classic;startArrow=classic;html=1;rounded=0;fontFamily=Helvetica;fontSize=12;fontColor=default;exitX=0.5;exitY=0;exitDx=0;exitDy=0;exitPerimeter=0;" edge="1" parent="1" source="66jfyr5Fb_T-7oH1abzF-17">
          <mxGeometry width="50" height="50" relative="1" as="geometry">
            <mxPoint x="390" y="360" as="sourcePoint" />
            <mxPoint x="440" y="360" as="targetPoint" />
          </mxGeometry>
        </mxCell>
        <mxCell id="66jfyr5Fb_T-7oH1abzF-25" value="Integration Layer" style="shape=umlFrame;whiteSpace=wrap;html=1;pointerEvents=0;strokeColor=default;align=center;verticalAlign=middle;fontFamily=Helvetica;fontSize=12;fontColor=default;fillColor=default;width=100;height=30;" vertex="1" parent="1">
          <mxGeometry x="160" y="640" width="560" height="120" as="geometry" />
        </mxCell>
        <mxCell id="66jfyr5Fb_T-7oH1abzF-26" value="Third-Party Authentication&amp;nbsp;&lt;div&gt;(Google etc)&lt;/div&gt;" style="text;html=1;align=center;verticalAlign=middle;resizable=0;points=[];autosize=1;strokeColor=none;fillColor=none;fontFamily=Helvetica;fontSize=12;fontColor=default;" vertex="1" parent="1">
          <mxGeometry x="160" y="683" width="160" height="40" as="geometry" />
        </mxCell>
        <mxCell id="66jfyr5Fb_T-7oH1abzF-28" value="" style="endArrow=classic;startArrow=classic;html=1;rounded=0;fontFamily=Helvetica;fontSize=12;fontColor=default;exitX=0.5;exitY=0;exitDx=0;exitDy=0;exitPerimeter=0;" edge="1" parent="1" source="66jfyr5Fb_T-7oH1abzF-25">
          <mxGeometry width="50" height="50" relative="1" as="geometry">
            <mxPoint x="380" y="620" as="sourcePoint" />
            <mxPoint x="440" y="560" as="targetPoint" />
          </mxGeometry>
        </mxCell>
        <mxCell id="66jfyr5Fb_T-7oH1abzF-29" value="External API&#39;s&lt;div&gt;(for push notifications, email services)&lt;/div&gt;" style="text;html=1;align=center;verticalAlign=middle;resizable=0;points=[];autosize=1;strokeColor=none;fillColor=none;fontFamily=Helvetica;fontSize=12;fontColor=default;" vertex="1" parent="1">
          <mxGeometry x="320" y="680" width="220" height="40" as="geometry" />
        </mxCell>
        <mxCell id="66jfyr5Fb_T-7oH1abzF-30" value="Analytics Services&lt;div&gt;Google Analytics&amp;nbsp;&lt;/div&gt;" style="text;html=1;align=center;verticalAlign=middle;resizable=0;points=[];autosize=1;strokeColor=none;fillColor=none;fontFamily=Helvetica;fontSize=12;fontColor=default;" vertex="1" parent="1">
          <mxGeometry x="560" y="683" width="120" height="40" as="geometry" />
        </mxCell>
        <mxCell id="66jfyr5Fb_T-7oH1abzF-31" value="Backup&lt;div&gt;DB&lt;/div&gt;" style="text;html=1;align=center;verticalAlign=middle;resizable=0;points=[];autosize=1;strokeColor=none;fillColor=none;fontFamily=Helvetica;fontSize=12;fontColor=default;" vertex="1" parent="1">
          <mxGeometry x="620" y="493" width="60" height="40" as="geometry" />
        </mxCell>
      </root>
    </mxGraphModel>
  </diagram>
</mxfile>
